<svg xmlns="http://www.w3.org/2000/svg" viewBox="0 0 512 512"><!--! Font Awesome Pro 6.3.0 by @fontawesome - https://fontawesome.com License - https://fontawesome.com/license (Commercial License) Copyright 2023 Fonticons, Inc. --><path d="M 160.7 161.1 M 160.7 161.1 c 10.2 -0.7 20.7 -1.1 31.3 -1.1 c 62.2 0 117.4 12.3 152.5 31.4 C 369.3 204.9 384 221.7 384 240 c 0 4 -0.7 7.9 -2.1 11.7 c -4.6 13.2 -17 25.3 -35 35.5 c 0 0 0 0 0 0 c -0.1 0.1 -0.3 0.1 -0.4 0.2 l 0 0 l 0 0 c -0.3 0.2 -0.6 0.3 -0.9 0.5 c -35 19.4 -90.8 32 -153.6 32 c -59.6 0 -112.9 -11.3 -148.2 -29.1 c -1.9 -0.9 -3.7 -1.9 -5.5 -2.9 C 14.3 274.6 0 258 0 240 c 0 -34.8 53.4 -64.5 128 -75.4 c 10.5 -1.5 21.4 -2.7 32.7 -3.5 z m 223.3 175.9 c 0 18 -14.3 34.6 -38.4 48 c -1.8 1 -3.6 1.9 -5.5 2.9 C 304.9 404.7 251.6 416 192 416 c -62.8 0 -118.6 -12.6 -153.6 -32 C 14.3 370.6 0 354 0 336 V 300.6 c 12.5 10.3 27.6 18.7 43.9 25.5 C 83.4 342.6 135.8 352 192 352 s 108.6 -9.4 148.1 -25.9 c 7.8 -3.2 15.3 -6.9 22.4 -10.9 c 6.1 -3.4 11.8 -7.2 17.2 -11.2 c 1.5 -1.1 2.9 -2.3 4.3 -3.4 V 304 v 5.7 V 336"/></svg>