<svg version="1.0" xmlns="http://www.w3.org/2000/svg"
 width="460.000000pt" height="542.000000pt" viewBox="0 0 460.000000 542.000000"
 preserveAspectRatio="xMidYMid meet">
<g transform="translate(0.000000,542.000000) scale(0.100000,-0.100000)"
fill="#000000" stroke="none">
<path d="M1705 5292 c-81 -38 -187 -181 -360 -487 -149 -261 -311 -629 -400
-905 -152 -471 -237 -1022 -221 -1425 37 -949 394 -1678 1027 -2095 213 -140
413 -221 546 -221 189 -1 566 209 821 455 479 463 738 1151 737 1961 -1 564
-130 1156 -380 1745 -70 167 -218 456 -314 613 -178 294 -247 370 -341 371
-35 1 -54 -5 -70 -19 -73 -66 -73 -153 3 -445 87 -336 115 -532 124 -861 14
-514 -70 -900 -252 -1154 -52 -73 -118 -131 -195 -171 -47 -24 -67 -28 -140
-29 -79 0 -92 3 -154 34 -223 114 -388 478 -427 946 -15 177 -6 566 16 735 22
167 67 387 110 540 19 69 40 159 46 200 10 66 9 82 -7 129 -30 87 -94 118
-169 83z m101 -63 c33 -37 26 -167 -19 -324 -154 -541 -188 -1100 -96 -1565
70 -353 221 -622 407 -723 151 -82 302 -68 441 41 188 147 311 416 373 817 31
200 30 618 0 847 -29 210 -64 385 -113 564 -70 256 -64 364 20 364 67 0 139
-87 316 -380 338 -562 571 -1251 647 -1910 19 -174 16 -630 -6 -805 -65 -512
-244 -964 -516 -1304 -76 -95 -228 -251 -305 -312 -165 -131 -482 -301 -595
-319 -117 -18 -204 5 -401 106 -196 100 -340 207 -502 371 -355 361 -570 839
-654 1453 -14 107 -18 198 -17 435 0 314 14 465 65 735 111 583 376 1231 705
1725 127 190 197 242 250 184z"/>
<path d="M3128 1400 c-97 -24 -248 -121 -351 -225 -143 -145 -247 -351 -247
-491 0 -48 4 -59 33 -91 30 -32 41 -37 91 -41 50 -4 65 0 130 32 139 68 293
239 381 420 79 163 119 354 81 385 -20 17 -74 22 -118 11z"/>
<path d="M1360 1388 c-19 -11 -26 -23 -28 -54 -7 -101 57 -291 149 -440 71
-116 220 -268 307 -313 151 -78 272 -37 272 94 0 152 -105 350 -272 511 -151
146 -352 241 -428 202z"/>
</g>
</svg>
