<svg version="1.0" xmlns="http://www.w3.org/2000/svg"
 width="460.000000pt" height="542.000000pt" viewBox="0 0 460.000000 542.000000"
 preserveAspectRatio="xMidYMid meet">

<g transform="translate(0.000000,542.000000) scale(0.100000,-0.100000)"
fill="#000000" stroke="none">
<path d="M1705 5296 c-43 -19 -92 -62 -134 -120 -39 -54 -125 -187 -159 -246
-11 -19 -46 -80 -78 -135 -283 -488 -526 -1207 -580 -1719 -3 -28 -10 -80 -15
-116 -6 -36 -12 -175 -15 -310 -9 -370 30 -682 122 -1000 39 -132 123 -351
168 -435 102 -193 185 -318 298 -452 265 -314 687 -582 958 -609 137 -14 414
111 672 303 169 125 416 393 498 541 9 15 29 47 45 72 52 81 162 322 208 455
70 205 121 432 149 670 17 147 17 616 -1 765 -88 754 -341 1459 -749 2090 -96
148 -135 196 -191 231 -83 53 -164 30 -196 -55 -27 -69 -15 -168 44 -381 27
-99 52 -196 55 -215 3 -19 12 -78 21 -130 46 -283 62 -579 46 -825 -12 -180
-12 -181 -41 -323 -76 -375 -230 -628 -429 -706 -58 -23 -173 -23 -231 0 -204
81 -367 374 -435 779 -69 418 -33 945 99 1435 63 235 69 325 26 395 -32 53
-92 69 -155 41z m1540 -3911 c29 -28 29 -31 11 -127 -55 -282 -269 -587 -482
-685 -117 -54 -219 -25 -245 69 -42 158 152 493 374 645 169 117 289 152 342
98z m-1683 -33 c177 -88 339 -249 428 -427 89 -175 99 -301 29 -359 -26 -22
-40 -26 -92 -26 -241 0 -555 396 -601 758 -6 47 -4 55 19 78 24 23 32 26 81
22 36 -3 80 -18 136 -46z"/>
</g>
</svg>
